<svg xmlns="http://www.w3.org/2000/svg" xmlns:xlink="http://www.w3.org/1999/xlink" width="186" height="189" viewBox="0 0 186 189">
  <defs>
    <clipPath id="clip-path">
      <rect width="186" height="189" fill="none"/>
    </clipPath>
  </defs>
  <g id="dot-1" transform="translate(186 189) rotate(180)" opacity="0.2" clip-path="url(#clip-path)">
    <g transform="translate(-243 -281)">
      <g id="Ellipse_1" data-name="Ellipse 1" transform="translate(243 281)" fill="#162c58" stroke="#fff" stroke-width="1">
        <circle cx="2.5" cy="2.5" r="2.5" stroke="none"/>
        <circle cx="2.5" cy="2.5" r="2" fill="none"/>
      </g>
    </g>
    <g transform="translate(-213 -281)">
      <g id="Ellipse_1-2" data-name="Ellipse 1" transform="translate(243 281)" fill="#162c58" stroke="#fff" stroke-width="1">
        <circle cx="2.5" cy="2.5" r="2.5" stroke="none"/>
        <circle cx="2.5" cy="2.5" r="2" fill="none"/>
      </g>
    </g>
    <g transform="translate(-183 -281)">
      <g id="Ellipse_1-3" data-name="Ellipse 1" transform="translate(243 281)" fill="#162c58" stroke="#fff" stroke-width="1">
        <circle cx="2.5" cy="2.5" r="2.5" stroke="none"/>
        <circle cx="2.5" cy="2.5" r="2" fill="none"/>
      </g>
    </g>
    <g transform="translate(-153 -281)">
      <g id="Ellipse_1-4" data-name="Ellipse 1" transform="translate(243 281)" fill="#162c58" stroke="#fff" stroke-width="1">
        <circle cx="2.5" cy="2.5" r="2.5" stroke="none"/>
        <circle cx="2.5" cy="2.5" r="2" fill="none"/>
      </g>
    </g>
    <g transform="translate(-123 -281)">
      <g id="Ellipse_1-5" data-name="Ellipse 1" transform="translate(243 281)" fill="#162c58" stroke="#fff" stroke-width="1">
        <circle cx="2.5" cy="2.5" r="2.5" stroke="none"/>
        <circle cx="2.5" cy="2.5" r="2" fill="none"/>
      </g>
    </g>
    <g transform="translate(-93 -281)">
      <g id="Ellipse_1-6" data-name="Ellipse 1" transform="translate(243 281)" fill="#162c58" stroke="#fff" stroke-width="1">
        <circle cx="2.5" cy="2.5" r="2.5" stroke="none"/>
        <circle cx="2.5" cy="2.5" r="2" fill="none"/>
      </g>
    </g>
    <g transform="translate(-63 -281)">
      <g id="Ellipse_1-7" data-name="Ellipse 1" transform="translate(243 281)" fill="#162c58" stroke="#fff" stroke-width="1">
        <circle cx="2.5" cy="2.5" r="2.5" stroke="none"/>
        <circle cx="2.5" cy="2.5" r="2" fill="none"/>
      </g>
    </g>
    <g transform="translate(-243 -251)">
      <g id="Ellipse_1-8" data-name="Ellipse 1" transform="translate(243 281)" fill="#162c58" stroke="#fff" stroke-width="1">
        <circle cx="2.5" cy="2.5" r="2.5" stroke="none"/>
        <circle cx="2.5" cy="2.5" r="2" fill="none"/>
      </g>
    </g>
    <g transform="translate(-213 -251)">
      <g id="Ellipse_1-9" data-name="Ellipse 1" transform="translate(243 281)" fill="#162c58" stroke="#fff" stroke-width="1">
        <circle cx="2.5" cy="2.5" r="2.5" stroke="none"/>
        <circle cx="2.5" cy="2.5" r="2" fill="none"/>
      </g>
    </g>
    <g transform="translate(-183 -251)">
      <g id="Ellipse_1-10" data-name="Ellipse 1" transform="translate(243 281)" fill="#162c58" stroke="#fff" stroke-width="1">
        <circle cx="2.5" cy="2.5" r="2.5" stroke="none"/>
        <circle cx="2.5" cy="2.5" r="2" fill="none"/>
      </g>
    </g>
    <g transform="translate(-153 -251)">
      <g id="Ellipse_1-11" data-name="Ellipse 1" transform="translate(243 281)" fill="#162c58" stroke="#fff" stroke-width="1">
        <circle cx="2.5" cy="2.5" r="2.5" stroke="none"/>
        <circle cx="2.5" cy="2.5" r="2" fill="none"/>
      </g>
    </g>
    <g transform="translate(-123 -251)">
      <g id="Ellipse_1-12" data-name="Ellipse 1" transform="translate(243 281)" fill="#162c58" stroke="#fff" stroke-width="1">
        <circle cx="2.5" cy="2.5" r="2.5" stroke="none"/>
        <circle cx="2.5" cy="2.5" r="2" fill="none"/>
      </g>
    </g>
    <g transform="translate(-93 -251)">
      <g id="Ellipse_1-13" data-name="Ellipse 1" transform="translate(243 281)" fill="#162c58" stroke="#fff" stroke-width="1">
        <circle cx="2.5" cy="2.5" r="2.5" stroke="none"/>
        <circle cx="2.5" cy="2.5" r="2" fill="none"/>
      </g>
    </g>
    <g transform="translate(-63 -251)">
      <g id="Ellipse_1-14" data-name="Ellipse 1" transform="translate(243 281)" fill="#162c58" stroke="#fff" stroke-width="1">
        <circle cx="2.5" cy="2.5" r="2.5" stroke="none"/>
        <circle cx="2.5" cy="2.5" r="2" fill="none"/>
      </g>
    </g>
    <g transform="translate(-243 -221)">
      <g id="Ellipse_1-15" data-name="Ellipse 1" transform="translate(243 281)" fill="#162c58" stroke="#fff" stroke-width="1">
        <circle cx="2.5" cy="2.5" r="2.5" stroke="none"/>
        <circle cx="2.5" cy="2.5" r="2" fill="none"/>
      </g>
    </g>
    <g transform="translate(-213 -221)">
      <g id="Ellipse_1-16" data-name="Ellipse 1" transform="translate(243 281)" fill="#162c58" stroke="#fff" stroke-width="1">
        <circle cx="2.5" cy="2.5" r="2.5" stroke="none"/>
        <circle cx="2.5" cy="2.5" r="2" fill="none"/>
      </g>
    </g>
    <g transform="translate(-183 -221)">
      <g id="Ellipse_1-17" data-name="Ellipse 1" transform="translate(243 281)" fill="#162c58" stroke="#fff" stroke-width="1">
        <circle cx="2.5" cy="2.5" r="2.5" stroke="none"/>
        <circle cx="2.5" cy="2.5" r="2" fill="none"/>
      </g>
    </g>
    <g transform="translate(-153 -221)">
      <g id="Ellipse_1-18" data-name="Ellipse 1" transform="translate(243 281)" fill="#162c58" stroke="#fff" stroke-width="1">
        <circle cx="2.5" cy="2.5" r="2.5" stroke="none"/>
        <circle cx="2.5" cy="2.5" r="2" fill="none"/>
      </g>
    </g>
    <g transform="translate(-123 -221)">
      <g id="Ellipse_1-19" data-name="Ellipse 1" transform="translate(243 281)" fill="#162c58" stroke="#fff" stroke-width="1">
        <circle cx="2.5" cy="2.5" r="2.5" stroke="none"/>
        <circle cx="2.5" cy="2.5" r="2" fill="none"/>
      </g>
    </g>
    <g transform="translate(-93 -221)">
      <g id="Ellipse_1-20" data-name="Ellipse 1" transform="translate(243 281)" fill="#162c58" stroke="#fff" stroke-width="1">
        <circle cx="2.5" cy="2.5" r="2.5" stroke="none"/>
        <circle cx="2.5" cy="2.5" r="2" fill="none"/>
      </g>
    </g>
    <g transform="translate(-63 -221)">
      <g id="Ellipse_1-21" data-name="Ellipse 1" transform="translate(243 281)" fill="#162c58" stroke="#fff" stroke-width="1">
        <circle cx="2.5" cy="2.5" r="2.5" stroke="none"/>
        <circle cx="2.5" cy="2.5" r="2" fill="none"/>
      </g>
    </g>
    <g transform="translate(-243 -191)">
      <g id="Ellipse_1-22" data-name="Ellipse 1" transform="translate(243 281)" fill="#162c58" stroke="#fff" stroke-width="1">
        <circle cx="2.5" cy="2.5" r="2.5" stroke="none"/>
        <circle cx="2.5" cy="2.5" r="2" fill="none"/>
      </g>
    </g>
    <g transform="translate(-213 -191)">
      <g id="Ellipse_1-23" data-name="Ellipse 1" transform="translate(243 281)" fill="#162c58" stroke="#fff" stroke-width="1">
        <circle cx="2.5" cy="2.5" r="2.5" stroke="none"/>
        <circle cx="2.5" cy="2.5" r="2" fill="none"/>
      </g>
    </g>
    <g transform="translate(-183 -191)">
      <g id="Ellipse_1-24" data-name="Ellipse 1" transform="translate(243 281)" fill="#162c58" stroke="#fff" stroke-width="1">
        <circle cx="2.5" cy="2.5" r="2.5" stroke="none"/>
        <circle cx="2.5" cy="2.5" r="2" fill="none"/>
      </g>
    </g>
    <g transform="translate(-153 -191)">
      <g id="Ellipse_1-25" data-name="Ellipse 1" transform="translate(243 281)" fill="#162c58" stroke="#fff" stroke-width="1">
        <circle cx="2.5" cy="2.5" r="2.5" stroke="none"/>
        <circle cx="2.5" cy="2.5" r="2" fill="none"/>
      </g>
    </g>
    <g transform="translate(-123 -191)">
      <g id="Ellipse_1-26" data-name="Ellipse 1" transform="translate(243 281)" fill="#162c58" stroke="#fff" stroke-width="1">
        <circle cx="2.5" cy="2.5" r="2.5" stroke="none"/>
        <circle cx="2.5" cy="2.5" r="2" fill="none"/>
      </g>
    </g>
    <g transform="translate(-93 -191)">
      <g id="Ellipse_1-27" data-name="Ellipse 1" transform="translate(243 281)" fill="#162c58" stroke="#fff" stroke-width="1">
        <circle cx="2.5" cy="2.5" r="2.5" stroke="none"/>
        <circle cx="2.5" cy="2.5" r="2" fill="none"/>
      </g>
    </g>
    <g transform="translate(-63 -191)">
      <g id="Ellipse_1-28" data-name="Ellipse 1" transform="translate(243 281)" fill="#162c58" stroke="#fff" stroke-width="1">
        <circle cx="2.5" cy="2.5" r="2.5" stroke="none"/>
        <circle cx="2.5" cy="2.5" r="2" fill="none"/>
      </g>
    </g>
    <g transform="translate(-243 -161)">
      <g id="Ellipse_1-29" data-name="Ellipse 1" transform="translate(243 281)" fill="#162c58" stroke="#fff" stroke-width="1">
        <circle cx="2.5" cy="2.5" r="2.5" stroke="none"/>
        <circle cx="2.5" cy="2.5" r="2" fill="none"/>
      </g>
    </g>
    <g transform="translate(-213 -161)">
      <g id="Ellipse_1-30" data-name="Ellipse 1" transform="translate(243 281)" fill="#162c58" stroke="#fff" stroke-width="1">
        <circle cx="2.5" cy="2.5" r="2.5" stroke="none"/>
        <circle cx="2.5" cy="2.5" r="2" fill="none"/>
      </g>
    </g>
    <g transform="translate(-183 -161)">
      <g id="Ellipse_1-31" data-name="Ellipse 1" transform="translate(243 281)" fill="#162c58" stroke="#fff" stroke-width="1">
        <circle cx="2.5" cy="2.5" r="2.5" stroke="none"/>
        <circle cx="2.5" cy="2.5" r="2" fill="none"/>
      </g>
    </g>
    <g transform="translate(-153 -161)">
      <g id="Ellipse_1-32" data-name="Ellipse 1" transform="translate(243 281)" fill="#162c58" stroke="#fff" stroke-width="1">
        <circle cx="2.5" cy="2.5" r="2.5" stroke="none"/>
        <circle cx="2.5" cy="2.5" r="2" fill="none"/>
      </g>
    </g>
    <g transform="translate(-123 -161)">
      <g id="Ellipse_1-33" data-name="Ellipse 1" transform="translate(243 281)" fill="#162c58" stroke="#fff" stroke-width="1">
        <circle cx="2.5" cy="2.5" r="2.5" stroke="none"/>
        <circle cx="2.5" cy="2.5" r="2" fill="none"/>
      </g>
    </g>
    <g transform="translate(-93 -161)">
      <g id="Ellipse_1-34" data-name="Ellipse 1" transform="translate(243 281)" fill="#162c58" stroke="#fff" stroke-width="1">
        <circle cx="2.5" cy="2.5" r="2.5" stroke="none"/>
        <circle cx="2.5" cy="2.5" r="2" fill="none"/>
      </g>
    </g>
    <g transform="translate(-63 -161)">
      <g id="Ellipse_1-35" data-name="Ellipse 1" transform="translate(243 281)" fill="#162c58" stroke="#fff" stroke-width="1">
        <circle cx="2.5" cy="2.5" r="2.5" stroke="none"/>
        <circle cx="2.5" cy="2.5" r="2" fill="none"/>
      </g>
    </g>
    <g transform="translate(-243 -131)">
      <g id="Ellipse_1-36" data-name="Ellipse 1" transform="translate(243 281)" fill="#162c58" stroke="#fff" stroke-width="1">
        <circle cx="2.5" cy="2.5" r="2.5" stroke="none"/>
        <circle cx="2.5" cy="2.5" r="2" fill="none"/>
      </g>
    </g>
    <g transform="translate(-213 -131)">
      <g id="Ellipse_1-37" data-name="Ellipse 1" transform="translate(243 281)" fill="#162c58" stroke="#fff" stroke-width="1">
        <circle cx="2.5" cy="2.5" r="2.5" stroke="none"/>
        <circle cx="2.5" cy="2.5" r="2" fill="none"/>
      </g>
    </g>
    <g transform="translate(-183 -131)">
      <g id="Ellipse_1-38" data-name="Ellipse 1" transform="translate(243 281)" fill="#162c58" stroke="#fff" stroke-width="1">
        <circle cx="2.5" cy="2.5" r="2.5" stroke="none"/>
        <circle cx="2.5" cy="2.5" r="2" fill="none"/>
      </g>
    </g>
    <g transform="translate(-153 -131)">
      <g id="Ellipse_1-39" data-name="Ellipse 1" transform="translate(243 281)" fill="#162c58" stroke="#fff" stroke-width="1">
        <circle cx="2.5" cy="2.5" r="2.5" stroke="none"/>
        <circle cx="2.5" cy="2.5" r="2" fill="none"/>
      </g>
    </g>
    <g transform="translate(-123 -131)">
      <g id="Ellipse_1-40" data-name="Ellipse 1" transform="translate(243 281)" fill="#162c58" stroke="#fff" stroke-width="1">
        <circle cx="2.5" cy="2.5" r="2.5" stroke="none"/>
        <circle cx="2.5" cy="2.5" r="2" fill="none"/>
      </g>
    </g>
    <g transform="translate(-93 -131)">
      <g id="Ellipse_1-41" data-name="Ellipse 1" transform="translate(243 281)" fill="#162c58" stroke="#fff" stroke-width="1">
        <circle cx="2.5" cy="2.5" r="2.5" stroke="none"/>
        <circle cx="2.5" cy="2.5" r="2" fill="none"/>
      </g>
    </g>
    <g transform="translate(-63 -131)">
      <g id="Ellipse_1-42" data-name="Ellipse 1" transform="translate(243 281)" fill="#162c58" stroke="#fff" stroke-width="1">
        <circle cx="2.5" cy="2.5" r="2.5" stroke="none"/>
        <circle cx="2.5" cy="2.5" r="2" fill="none"/>
      </g>
    </g>
    <g transform="translate(-243 -101)">
      <g id="Ellipse_1-43" data-name="Ellipse 1" transform="translate(243 281)" fill="#162c58" stroke="#fff" stroke-width="1">
        <circle cx="2.5" cy="2.5" r="2.5" stroke="none"/>
        <circle cx="2.5" cy="2.5" r="2" fill="none"/>
      </g>
    </g>
    <g transform="translate(-213 -101)">
      <g id="Ellipse_1-44" data-name="Ellipse 1" transform="translate(243 281)" fill="#162c58" stroke="#fff" stroke-width="1">
        <circle cx="2.5" cy="2.5" r="2.5" stroke="none"/>
        <circle cx="2.5" cy="2.5" r="2" fill="none"/>
      </g>
    </g>
    <g transform="translate(-183 -101)">
      <g id="Ellipse_1-45" data-name="Ellipse 1" transform="translate(243 281)" fill="#162c58" stroke="#fff" stroke-width="1">
        <circle cx="2.5" cy="2.5" r="2.5" stroke="none"/>
        <circle cx="2.5" cy="2.5" r="2" fill="none"/>
      </g>
    </g>
    <g transform="translate(-153 -101)">
      <g id="Ellipse_1-46" data-name="Ellipse 1" transform="translate(243 281)" fill="#162c58" stroke="#fff" stroke-width="1">
        <circle cx="2.5" cy="2.5" r="2.5" stroke="none"/>
        <circle cx="2.5" cy="2.5" r="2" fill="none"/>
      </g>
    </g>
    <g transform="translate(-123 -101)">
      <g id="Ellipse_1-47" data-name="Ellipse 1" transform="translate(243 281)" fill="#162c58" stroke="#fff" stroke-width="1">
        <circle cx="2.5" cy="2.5" r="2.5" stroke="none"/>
        <circle cx="2.5" cy="2.5" r="2" fill="none"/>
      </g>
    </g>
    <g transform="translate(-93 -101)">
      <g id="Ellipse_1-48" data-name="Ellipse 1" transform="translate(243 281)" fill="#162c58" stroke="#fff" stroke-width="1">
        <circle cx="2.5" cy="2.5" r="2.5" stroke="none"/>
        <circle cx="2.5" cy="2.5" r="2" fill="none"/>
      </g>
    </g>
    <g transform="translate(-63 -101)">
      <g id="Ellipse_1-49" data-name="Ellipse 1" transform="translate(243 281)" fill="#162c58" stroke="#fff" stroke-width="1">
        <circle cx="2.5" cy="2.5" r="2.5" stroke="none"/>
        <circle cx="2.5" cy="2.5" r="2" fill="none"/>
      </g>
    </g>
  </g>
</svg>
