<svg xmlns="http://www.w3.org/2000/svg" xmlns:xlink="http://www.w3.org/1999/xlink" width="29.98" height="19.987" viewBox="0 0 29.98 19.987">
  <defs>
    <linearGradient id="linear-gradient" x1="0.176" y1="0.078" x2="0.874" y2="1" gradientUnits="objectBoundingBox">
      <stop offset="0" stop-color="#7a0c8c"/>
      <stop offset="1" stop-color="#05d6fb"/>
    </linearGradient>
  </defs>
  <path id="view" d="M14.991,68.164a5.775,5.775,0,0,0-1.626.26,2.884,2.884,0,0,1,.377,1.405,2.915,2.915,0,0,1-2.915,2.915,2.883,2.883,0,0,1-1.405-.377,5.814,5.814,0,1,0,5.569-4.2ZM29.8,73.233A16.694,16.694,0,0,0,14.991,64,16.7,16.7,0,0,0,.182,73.234a1.684,1.684,0,0,0,0,1.519,16.694,16.694,0,0,0,14.809,9.233A16.7,16.7,0,0,0,29.8,74.753a1.684,1.684,0,0,0,0-1.519ZM14.991,81.488a14.159,14.159,0,0,1-12.384-7.5,14.158,14.158,0,0,1,12.384-7.5,14.158,14.158,0,0,1,12.384,7.5A14.158,14.158,0,0,1,14.991,81.488Z" transform="translate(-0.001 -64)" fill="url(#linear-gradient)"/>
</svg>
