<svg xmlns="http://www.w3.org/2000/svg" xmlns:xlink="http://www.w3.org/1999/xlink" width="1142.603" height="774.236" viewBox="0 0 1142.603 774.236">
  <defs>
    <linearGradient id="linear-gradient" x1="0.594" y1="0.688" x2="0.444" y2="0.389" gradientUnits="objectBoundingBox">
      <stop offset="0" stop-color="#ff3688"/>
      <stop offset="1" stop-color="#ff85bc"/>
    </linearGradient>
  </defs>
  <g id="alerts-log" transform="translate(-4912 89)">
    <path id="side-bg" d="M3229.16-2.491s-166.93,451.113-461.548,480.128-681.054,294.108-681.054,294.108l1142.6-8.91V-2.491Z" transform="translate(2825.442 -86.509)" fill="#e5f9ff"/>
    <g id="alerts-log-2" data-name="alerts-log" transform="translate(5233 81)">
      <g id="Group_54" data-name="Group 54">
        <g id="Group_53" data-name="Group 53">
          <g id="Group_1" data-name="Group 1">
            <ellipse id="Ellipse_1" data-name="Ellipse 1" cx="210.088" cy="13.135" rx="210.088" ry="13.135" transform="translate(42.644 388.778)" fill="#e6f5ff"/>
            <ellipse id="Ellipse_2" data-name="Ellipse 2" cx="37.013" cy="2.636" rx="37.013" ry="2.636" transform="translate(137.869 405.353)" fill="#d4ecff"/>
            <ellipse id="Ellipse_3" data-name="Ellipse 3" cx="52.216" cy="3.79" rx="52.216" ry="3.79" transform="translate(280.651 401.838)" fill="#d4ecff"/>
          </g>
          <g id="Group_9" data-name="Group 9">
            <g id="Group_3" data-name="Group 3">
              <path id="Path_1" data-name="Path 1" d="M70.132,237.243C117.856,205.509,99.1,115.137,182.987,115.137s36.813,46.487,121.3,27.893,49.854,102.15,98.974,119.921c59.176,21.41,77.248,79.663,32.589,134.208H65.3S-1.081,284.6,70.132,237.243Z" fill="#d4ecff"/>
              <g id="Group_2" data-name="Group 2">
                <path id="Path_2" data-name="Path 2" d="M162.158,117.153l-.139.118s.09-.054.259-.144Z" fill="#d4ecff"/>
                <path id="Path_3" data-name="Path 3" d="M435.389,397.056c44.659-54.545,26.587-112.8-32.589-134.208-49.12-17.771-14.484-138.516-98.974-119.922s-37.417-27.892-121.3-27.892c-.5,0-.971.019-1.46.025,9.271,1.879,21.088,8.236,33.526,25.1,27.831,37.727,47,51.333,90.915,40.819s-16.7,117.509,57.517,125.549c53.551,5.8,24.671,56.037-4.161,90.534Z" fill="#b3d9ff" opacity="0.18" style="mix-blend-mode: multiply;isolation: isolate"/>
              </g>
            </g>
            <g id="Group_8" data-name="Group 8">
              <g id="Group_4" data-name="Group 4">
                <path id="Path_4" data-name="Path 4" d="M427.956,233.56V259a12.191,12.191,0,0,1-12.159,12.15H390.358A12.189,12.189,0,0,1,378.209,259V233.56A12.191,12.191,0,0,1,390.358,221.4H415.8A12.193,12.193,0,0,1,427.956,233.56Z" fill="#9999ef"/>
                <path id="Path_5" data-name="Path 5" d="M402.773,231.945A13.936,13.936,0,0,0,392.1,254.229a4.24,4.24,0,0,1,.745,3.5l-.888,3.829,4.688-2.064a4.244,4.244,0,0,1,2.853-.2,13.938,13.938,0,1,0,3.278-27.352Zm-5.7,14.722a.838.838,0,1,1,.838-.837A.838.838,0,0,1,397.076,246.667Zm5.956,0a.838.838,0,1,1,.838-.837A.837.837,0,0,1,403.032,246.667Zm6.284,0a.838.838,0,1,1,.838-.837A.837.837,0,0,1,409.316,246.667Z" fill="#fff"/>
              </g>
              <g id="Group_7" data-name="Group 7">
                <rect id="Rectangle_3" data-name="Rectangle 3" width="50.68" height="50.68" rx="12.384" transform="translate(215.603 115.254)" fill="#acc9f9"/>
                <g id="Group_6" data-name="Group 6">
                  <path id="Path_7" data-name="Path 7" d="M224.494,142.935a1.21,1.21,0,0,0-.745,1.559l.745,2.118a1.237,1.237,0,0,0,1.559.745l1.07-.384-1.57-4.41Z" fill="#a7bcf7"/>
                  <path id="Path_8" data-name="Path 8" d="M237.561,148.6l-4.584,1.629c-.024,0-.035.011-.059.023l2.153,6.086a.468.468,0,0,0,.384.314l4.422.477a.474.474,0,0,0,.489-.629Z" fill="#a7bcf7"/>
                  <path id="Path_9" data-name="Path 9" d="M257.462,144.586l-2.2-6.213a3.779,3.779,0,0,0,1.474-2.979,3.823,3.823,0,0,0-3.826-3.825l-.058,0-2.186-6.169a1.618,1.618,0,0,0-3.05,1.081l6.8,19.182a1.617,1.617,0,1,0,3.049-1.08Z" fill="#a7bcf7"/>
                  <path id="Path_10" data-name="Path 10" d="M234.052,136.081l-5.446,1.93a2.953,2.953,0,0,0-1.8,3.769l1.813,5.115a2.947,2.947,0,0,0,3.7,1.814l0,.006a.158.158,0,0,0,.067-.023h0l5.44-1.927.01.011s11.544-2.846,14.936-.69l-6.687-18.872C244.812,131.024,234.052,136.081,234.052,136.081Z" fill="#a7bcf7"/>
                </g>
              </g>
            </g>
          </g>
          <g id="Group_27" data-name="Group 27">
            <g id="Group_12" data-name="Group 12">
              <g id="Group_10" data-name="Group 10">
                <path id="Path_11" data-name="Path 11" d="M113.725,374.314c-.081-.029,6.759-5.394,11.048-13.058,4.413-7.432,6.276-17.161-.9-20.584-10.184-4.448-.9-20.5-8.563-21.605-7.4-.56-6.228,3.3-10.272-6.534-4.488-9.792-11.953-7.762-20.712-13.27-9.275-5.222-14.131,6.775-4.879,15.545,9.006,9.42-2.6,1.268-2.333,8.117.142,5.711,21.923,15.8,16.4,17.328-5.408.974-7.191,6.007-3.379,10.383C99.253,360.485,113.779,373.957,113.725,374.314Z" fill="#95baef"/>
                <path id="Path_12" data-name="Path 12" d="M113.5,381.048a.172.172,0,0,0,.083-.14,90.362,90.362,0,0,0-4.262-38.358l-.038-.108.045-.1A49.385,49.385,0,0,0,112.7,330.2c.236-1.384.45-2.781.662-4.182a.136.136,0,0,0-.072-.162.185.185,0,0,0-.3.124c-.207,1.37-.415,2.736-.644,4.089a51.547,51.547,0,0,1-2.99,11.277c-.082.194-.164.389-.246.582-.075-.209-.151-.417-.227-.626a85.829,85.829,0,0,0-8.579-17.145c-.032-.051-.065-.1-.1-.152l.087-.143a.139.139,0,0,0,.022-.082,48.234,48.234,0,0,0-2.346-13.869.173.173,0,0,0-.14-.136.2.2,0,0,0-.213.1.174.174,0,0,0,0,.125,48.075,48.075,0,0,1,2.3,12.732q.018.439.032.876-.247-.375-.5-.75a96.524,96.524,0,0,0-13.111-15.637c-.063-.061-.1-.054-.117-.051a.2.2,0,0,0-.135.133.2.2,0,0,0,.058.219A94.212,94.212,0,0,1,102.871,329.1c.087.156.174.311.26.467l-.5-.081a69.323,69.323,0,0,1-15.914-4.554c-.058-.025-.1-.026-.136.043a.265.265,0,0,0-.015.2.192.192,0,0,0,.113.117,69.287,69.287,0,0,0,16.511,4.668l.155.013.075.137a83.758,83.758,0,0,1,5.453,12.218l.025.072-.013.072a.171.171,0,0,0,.062.164l.056.051.025.071a83.77,83.77,0,0,1,3.083,11.608c.044.231.088.463.131.694q-.266-.228-.533-.454a66.438,66.438,0,0,0-16.074-10.117.162.162,0,0,0-.207.051.212.212,0,0,0-.051.166.125.125,0,0,0,.083.085,66.571,66.571,0,0,1,16.807,10.755l.075.066.018.1a92.437,92.437,0,0,1,.865,25.216c-.008.088.027.112.044.123a.232.232,0,0,0,.231,0Z" fill="#092b96" opacity="0.39" style="mix-blend-mode: multiply;isolation: isolate"/>
              </g>
              <g id="Group_11" data-name="Group 11">
                <path id="Path_13" data-name="Path 13" d="M133.926,391.233c-.2.763-6.747-16.956-24.388-29.936-16.4-13.516-43.9-22.294-57.392-16.01-26.213,11.891-6.219,24.646,7.558,20.346,14.291-3.255,2.977,16.973,18.631,12.776,15.536-2.911,15.181,2.428,24.047,1.783C112.014,378.962,134.552,390.62,133.926,391.233Z" fill="#95baef"/>
              </g>
            </g>
            <g id="Group_16" data-name="Group 16">
              <g id="Group_13" data-name="Group 13">
                <path id="Path_14" data-name="Path 14" d="M399.029,364c.051-.069-8.624-.626-16.5-4.52-7.843-3.633-14.882-10.6-10.9-17.484,5.882-9.428-10.846-17.414-5.159-22.66,5.791-4.649,7.005-.8,4.777-11.2-1.837-10.614,5.467-13.162,9.576-22.658,4.7-9.552,15.484-2.4,12.815,10.06-2.1,12.862,2.864-.426,6.515,5.375,3.112,4.79-9.143,25.431-3.72,23.562,5.01-2.255,9.328.887,8.659,6.653C403.144,344.412,398.783,363.737,399.029,364Z" fill="#9999ef"/>
                <path id="Path_15" data-name="Path 15" d="M403.021,369.429a.169.169,0,0,1-.147-.069,90.347,90.347,0,0,1-18.18-34.044l-.03-.109-.092-.057a49.333,49.333,0,0,1-9.648-8.107c-.977-1.008-1.944-2.039-2.912-3.075a.136.136,0,0,1-.032-.174.21.21,0,0,1,.253-.119.205.205,0,0,1,.068.051c.945,1.012,1.889,2.02,2.843,3.007a51.534,51.534,0,0,0,8.844,7.609l.532.341c-.056-.215-.112-.429-.167-.644a85.884,85.884,0,0,1-2.622-18.992c0-.06,0-.121,0-.181l-.152-.069a.143.143,0,0,1-.065-.054,48.235,48.235,0,0,1-5.909-12.766.172.172,0,0,1,.038-.191.2.2,0,0,1,.231-.041.184.184,0,0,1,.068.106,48.084,48.084,0,0,0,5.3,11.8q.234.37.469.74c-.005-.3-.01-.6-.013-.9a96.512,96.512,0,0,1,1.968-20.312c.018-.085.054-.1.067-.107a.207.207,0,0,1,.263.246,94.221,94.221,0,0,0-1.588,27.254c.016.177.032.354.049.531l.365-.348A69.317,69.317,0,0,0,393.369,308c.034-.054.067-.077.136-.041a.259.259,0,0,1,.126.158.19.19,0,0,1-.027.159,69.2,69.2,0,0,1-10.976,13.188l-.121.1.016.155a83.7,83.7,0,0,0,2.414,13.161l.02.073.051.052a.169.169,0,0,1,.042.171l-.018.073.02.073a83.8,83.8,0,0,0,4.023,11.316q.141.324.284.647l.183-.676a66.461,66.461,0,0,1,7.534-17.435.163.163,0,0,1,.2-.075.213.213,0,0,1,.136.109.123.123,0,0,1-.021.117,66.547,66.547,0,0,0-7.778,18.375l-.025.1.042.092a92.4,92.4,0,0,0,13.549,21.286c.056.067.04.107.033.126a.232.232,0,0,1-.191.13Z" fill="#092b96" opacity="0.39" style="mix-blend-mode: multiply;isolation: isolate"/>
              </g>
              <g id="Group_14" data-name="Group 14">
                <path id="Path_16" data-name="Path 16" d="M388.064,373.148c.086-.007-5.226-6.889-7.5-15.371-2.451-8.289-1.866-18.178,5.929-19.733,10.965-1.809,5.914-19.645,13.609-18.839,7.315,1.278,5.226,4.732,11.563-3.808,6.757-8.389,13.495-4.588,23.338-7.774,10.273-2.783,12.033,10.039.909,16.267-11.044,6.918,2.212,1.869.268,8.442-1.542,5.5-25.135,9.93-20.151,12.767,5,2.273,5.495,7.591.724,10.9C405.491,363.3,388.1,372.789,388.064,373.148Z" fill="#acc9f9"/>
                <path id="Path_17" data-name="Path 17" d="M386.624,379.731a.171.171,0,0,1-.045-.156,90.346,90.346,0,0,1,13.557-36.135l.062-.1-.018-.106a49.328,49.328,0,0,1-.284-12.6c.111-1.4.247-2.806.386-4.217a.135.135,0,0,1,.109-.139.209.209,0,0,1,.256.111.191.191,0,0,1,.007.084c-.136,1.379-.27,2.753-.38,4.121a51.511,51.511,0,0,0,.127,11.666c.032.209.063.417.1.625l.373-.551A85.859,85.859,0,0,1,413.4,327.829l.132-.123-.048-.16a.138.138,0,0,1,0-.085,48.224,48.224,0,0,1,5.683-12.867.172.172,0,0,1,.169-.1.2.2,0,0,1,.182.146.171.171,0,0,1-.034.121,48.1,48.1,0,0,0-5.358,11.777c-.083.28-.165.561-.246.841q.333-.3.667-.605A96.5,96.5,0,0,1,431.1,314.84c.076-.043.112-.027.125-.021a.2.2,0,0,1,.1.163.2.2,0,0,1-.109.2A94.172,94.172,0,0,0,409.7,331.986c-.122.129-.245.258-.367.388l.5.044a69.341,69.341,0,0,0,16.544-.5c.063-.01.1,0,.122.075a.269.269,0,0,1-.036.2.19.19,0,0,1-.137.085,69.251,69.251,0,0,1-17.152.468l-.154-.025-.106.114a83.71,83.71,0,0,0-8.288,10.5l-.042.064-.005.073a.172.172,0,0,1-.1.144l-.067.035-.041.063a83.657,83.657,0,0,0-5.841,10.494c-.1.214-.2.427-.3.641l.628-.309a66.466,66.466,0,0,1,18.068-5.857.161.161,0,0,1,.188.1.21.21,0,0,1,.008.174.123.123,0,0,1-.1.062,66.526,66.526,0,0,0-18.935,6.3l-.088.045-.042.092a92.409,92.409,0,0,0-7.035,24.231c-.013.087-.054.1-.073.108a.231.231,0,0,1-.224-.057Z" fill="#092b96" opacity="0.39" style="mix-blend-mode: multiply;isolation: isolate"/>
              </g>
              <g id="Group_15" data-name="Group 15">
                <path id="Path_18" data-name="Path 18" d="M366.809,385.873s60.486-46.235,79.524-42.237,7.027,24.071-5.21,23.345-1.41,19.242-16.014,16.849-14.829,2.811-23.553,1.119S366.809,385.873,366.809,385.873Z" fill="#9999ef"/>
              </g>
            </g>
            <g id="Group_17" data-name="Group 17">
              <path id="Path_2686" data-name="Path 2686" d="M7.962,0H243.694a7.962,7.962,0,0,1,7.962,7.962V170.868a7.962,7.962,0,0,1-7.962,7.962H7.962A7.962,7.962,0,0,1,0,170.868V7.962A7.962,7.962,0,0,1,7.962,0Z" transform="translate(113.27 218.913)" fill="#acc9f9"/>
              <rect id="Rectangle_5" data-name="Rectangle 5" width="155.689" height="198.617" rx="1.482" transform="translate(331.326 230.484) rotate(90)" fill="#d4ecff"/>
              <path id="Path_19" data-name="Path 19" d="M329.843,230.484H134.191a1.484,1.484,0,0,0-1.483,1.482v4.24H322.976a1.484,1.484,0,0,1,1.483,1.482V386.172h5.384a1.484,1.484,0,0,0,1.483-1.482V231.966A1.484,1.484,0,0,0,329.843,230.484Z" fill="#b3d9ff"/>
              <path id="Path_20" data-name="Path 20" d="M356.057,308.328a8.1,8.1,0,1,0-8.1,8.1A8.1,8.1,0,0,0,356.057,308.328Z" fill="#fff"/>
              <path id="Path_21" data-name="Path 21" d="M134.194,386.171H241.086a144.692,144.692,0,0,1-18.64,11.574H121.234a7.965,7.965,0,0,1-7.963-7.964V226.872a7.963,7.963,0,0,1,7.963-7.957h170.4q2.1,5.678,3.72,11.566H134.194a1.485,1.485,0,0,0-1.488,1.488V384.69A1.484,1.484,0,0,0,134.194,386.171Z" fill="#acc9f9"/>
            </g>
            <path id="Path_22" data-name="Path 22" d="M190.537,280.274" fill="#1d88f2"/>
            <path id="Path_23" data-name="Path 23" d="M122.748,292.53h0a1.52,1.52,0,0,0-1.515,1.515V329.4a1.519,1.519,0,0,0,1.515,1.515h0a1.519,1.519,0,0,0,1.516-1.515V294.045A1.52,1.52,0,0,0,122.748,292.53Z" fill="#fff"/>
            <path id="Path_24" data-name="Path 24" d="M168.239,341.69a6.3,6.3,0,0,1-.381-1.606C167.912,340.373,168.034,340.951,168.239,341.69Z" fill="#0d5dbc"/>
            <g id="Group_26" data-name="Group 26">
              <g id="Group_18" data-name="Group 18">
                <path id="Path_25" data-name="Path 25" d="M337.035,203.513l.81-.566c-.256-1.489-1.559-3.711-6.023-6.345-8.262-4.873-16.395-13-16.032-17.316,0,0-3.9,10.983,1.9,15.512C323.136,199.049,334.013,196.81,337.035,203.513Z" fill="#acc9f9"/>
                <path id="Path_26" data-name="Path 26" d="M337.365,203.283l.481-.336c-.256-1.489-1.56-3.711-6.024-6.345-8.262-4.873-16.395-13-16.032-17.316,0,0-1.141,9.3,4.631,13.4C326.118,196.741,334.009,195.407,337.365,203.283Z" fill="#9999ef"/>
              </g>
              <g id="Group_20" data-name="Group 20">
                <path id="Path_27" data-name="Path 27" d="M335.586,197.911a21.968,21.968,0,0,1,1.586,4.333l.437-.236a35.124,35.124,0,0,0-4.995-17.291c-5.95-9.5-13.3-21.464-13.3-21.464s-3.119,14.377,6.917,23.027A36.609,36.609,0,0,1,335.586,197.911Z" fill="#acc9f9"/>
                <g id="Group_19" data-name="Group 19">
                  <path id="Path_28" data-name="Path 28" d="M326.2,179.528c5.263,7.692,10.211,16.816,10.937,21.416.1-.4.215-.832.331-1.268a34.378,34.378,0,0,0-4.853-14.959c-1.267-2.023-4.062-6.513-4.062-6.513l-9.242-14.951S319.35,169.517,326.2,179.528Z" fill="#9999ef"/>
                </g>
              </g>
              <g id="Group_22" data-name="Group 22">
                <path id="Path_29" data-name="Path 29" d="M339.154,200.834a19.345,19.345,0,0,1-3.53,2.02l.27.344a30.958,30.958,0,0,0,14.283-6.9c7.372-6.574,16.678-14.734,16.678-14.734s-12.952-.582-18.981,9.417A32.251,32.251,0,0,1,339.154,200.834Z" fill="#acc9f9"/>
                <g id="Group_21" data-name="Group 21">
                  <path id="Path_30" data-name="Path 30" d="M353.736,189.96c-5.9,5.71-13.1,11.358-16.987,12.67.366.029.754.063,1.15.1a30.282,30.282,0,0,0,12.278-6.43c7.372-6.574,16.678-14.734,16.678-14.734S361.42,182.528,353.736,189.96Z" fill="#9999ef"/>
                </g>
              </g>
              <g id="Group_23" data-name="Group 23">
                <path id="Path_31" data-name="Path 31" d="M337.955,204.127c.213,2.111.389,3.568.459,4.564l.415.006c.186-3.572.505-9.741.4-13.867-.157-6.076,1.707-8.555,2.87-18.783s-1.553-24.76-1.553-24.76-7.139,12.917-4.9,27.426S337.019,194.824,337.955,204.127Z" fill="#9999ef"/>
                <path id="Path_32" data-name="Path 32" d="M338.441,208.692h.078l.382-1.386c.185-3.634.42-8.846.326-12.477-.157-6.076,1.707-8.555,2.87-18.783s-1.553-24.76-1.553-24.76-2.914,20.165-2.3,29.436C338.811,189.3,338.492,206.211,338.441,208.692Z" fill="#9999ef"/>
              </g>
              <g id="Group_24" data-name="Group 24">
                <path id="Path_33" data-name="Path 33" d="M353.317,162.327c-.343,2.339-7.045,15.983-11.173,25.1a27.425,27.425,0,0,0-1.836,16.417l.828-.018c-.563-3.111-.754-2.629-.141-7.512.672-5.357,8.213-9.231,12.784-19.624S353.66,159.989,353.317,162.327Z" fill="#acc9f9"/>
                <path id="Path_34" data-name="Path 34" d="M353.574,161.868c.139,3.309.138,14.578-5.79,20.7-6.867,7.089-8.943,14.8-6.712,21.267l.064,0c-.563-3.111-.754-2.629-.141-7.512.672-5.357,8.213-9.231,12.784-19.624C357.845,167.45,354.587,161.441,353.574,161.868Z" fill="#9999ef"/>
              </g>
              <g id="Group_25" data-name="Group 25">
                <path id="Path_35" data-name="Path 35" d="M325.729,202.853l2.368,14.015a2.716,2.716,0,0,0,2.678,2.263h13.692a2.715,2.715,0,0,0,2.677-2.263l2.368-14.015a2.076,2.076,0,0,0-2.047-2.423H327.776A2.076,2.076,0,0,0,325.729,202.853Z" fill="#b3d9ff"/>
                <path id="Path_36" data-name="Path 36" d="M349.5,202.144v0a2.062,2.062,0,0,0-.107-.382l-.011-.027a2.065,2.065,0,0,0-.165-.325c-.013-.02-.027-.039-.04-.058a1.968,1.968,0,0,0-.2-.255c-.028-.031-.06-.057-.09-.086a2.117,2.117,0,0,0-.209-.181c-.05-.037-.106-.066-.159-.1s-.128-.079-.2-.111a2.1,2.1,0,0,0-.246-.086c-.054-.016-.105-.039-.161-.051a2.048,2.048,0,0,0-.447-.05H327.776a2.068,2.068,0,0,0-2.063,2.133H343.3a2.187,2.187,0,0,1-.016.29l-2.369,14.015a2.715,2.715,0,0,1-2.677,2.263h6.234a2.715,2.715,0,0,0,2.677-2.263l2.368-14.015A2.051,2.051,0,0,0,349.5,202.144Z" fill="#53a4f4" opacity="0.56"/>
              </g>
            </g>
            <path id="Path_37" data-name="Path 37" d="M297.865,397.256" fill="#f4d1ae"/>
          </g>
          <g id="Group_39" data-name="Group 39">
            <g id="Group_28" data-name="Group 28">
              <path id="Path_38" data-name="Path 38" d="M309.486,197.493v188.66H162.643V188.4a9.087,9.087,0,0,0,9.1,9.1Z" fill="#fff"/>
              <path id="Path_39" data-name="Path 39" d="M293.216,179.094v16.882H171.733a7.584,7.584,0,0,1-7.573-7.574v-1.743a7.582,7.582,0,0,1,7.573-7.565Z" fill="#acc9f9"/>
              <path id="Path_40" data-name="Path 40" d="M173.636,184.688H299.441v-1.522H173.636a3.922,3.922,0,0,0-3.912,3.92v.9a3.923,3.923,0,0,0,3.912,3.92H306.343v-1.523H173.636a2.4,2.4,0,0,1-2.39-2.4v-.9A2.4,2.4,0,0,1,173.636,184.688Z" fill="#fff"/>
              <path id="Path_41" data-name="Path 41" d="M171.733,179.094H293.216v-1.522H171.733a9.088,9.088,0,0,0-9.1,9.087V188.4a9.1,9.1,0,0,0,9.1,9.1H309.5v-1.522H171.733a7.584,7.584,0,0,1-7.573-7.574v-1.743A7.582,7.582,0,0,1,171.733,179.094Z" fill="#fff"/>
              <path id="Path_42" data-name="Path 42" d="M306.343,191.9" fill="#fff"/>
              <path id="Path_43" data-name="Path 43" d="M306.346,191.9v4.072H171.733a7.343,7.343,0,0,1-2.009-.274v-7.718a3.923,3.923,0,0,0,3.912,3.92Z" fill="#9999ef"/>
            </g>
            <g id="Group_38" data-name="Group 38">
              <g id="Group_29" data-name="Group 29">
                <rect id="Rectangle_6" data-name="Rectangle 6" width="18.113" height="1.763" transform="translate(214.76 260.888)" fill="#c3e2fc"/>
                <rect id="Rectangle_7" data-name="Rectangle 7" width="18.113" height="1.763" transform="translate(214.76 265.653)" fill="#c3e2fc"/>
                <rect id="Rectangle_8" data-name="Rectangle 8" width="18.113" height="1.763" transform="translate(214.76 270.419)" fill="#c3e2fc"/>
                <rect id="Rectangle_9" data-name="Rectangle 9" width="18.113" height="1.763" transform="translate(214.76 275.185)" fill="#c3e2fc"/>
                <rect id="Rectangle_10" data-name="Rectangle 10" width="18.113" height="1.763" transform="translate(214.76 279.951)" fill="#c3e2fc"/>
                <rect id="Rectangle_11" data-name="Rectangle 11" width="18.113" height="1.763" transform="translate(214.76 284.717)" fill="#c3e2fc"/>
                <rect id="Rectangle_12" data-name="Rectangle 12" width="52.029" height="1.763" transform="translate(180.845 289.483)" fill="#c3e2fc"/>
                <rect id="Rectangle_13" data-name="Rectangle 13" width="52.029" height="1.763" transform="translate(180.845 294.249)" fill="#c3e2fc"/>
                <rect id="Rectangle_14" data-name="Rectangle 14" width="52.029" height="1.763" transform="translate(180.845 299.015)" fill="#c3e2fc"/>
                <rect id="Rectangle_15" data-name="Rectangle 15" width="52.029" height="1.763" transform="translate(180.845 303.781)" fill="#c3e2fc"/>
                <rect id="Rectangle_16" data-name="Rectangle 16" width="52.029" height="1.763" transform="translate(180.845 308.547)" fill="#c3e2fc"/>
              </g>
              <g id="Group_30" data-name="Group 30">
                <rect id="Rectangle_17" data-name="Rectangle 17" width="25.271" height="1.709" transform="translate(267.46 347.384)" fill="#c3e2fc"/>
                <rect id="Rectangle_18" data-name="Rectangle 18" width="25.271" height="1.709" transform="translate(267.46 352.004)" fill="#c3e2fc"/>
                <rect id="Rectangle_19" data-name="Rectangle 19" width="25.271" height="1.709" transform="translate(267.46 356.623)" fill="#c3e2fc"/>
                <rect id="Rectangle_20" data-name="Rectangle 20" width="25.271" height="1.709" transform="translate(267.46 361.243)" fill="#c3e2fc"/>
                <rect id="Rectangle_21" data-name="Rectangle 21" width="25.271" height="1.709" transform="translate(267.46 365.862)" fill="#c3e2fc"/>
              </g>
              <g id="Group_31" data-name="Group 31">
                <rect id="Rectangle_22" data-name="Rectangle 22" width="25.271" height="1.763" transform="translate(267.46 370.333)" fill="#c3e2fc"/>
                <rect id="Rectangle_23" data-name="Rectangle 23" width="25.271" height="1.763" transform="translate(267.46 375.099)" fill="#c3e2fc"/>
              </g>
              <g id="Group_32" data-name="Group 32">
                <rect id="Rectangle_24" data-name="Rectangle 24" width="26.874" height="1.709" transform="translate(235.458 347.384)" fill="#c3e2fc"/>
                <rect id="Rectangle_25" data-name="Rectangle 25" width="26.874" height="1.709" transform="translate(235.458 352.004)" fill="#c3e2fc"/>
                <rect id="Rectangle_26" data-name="Rectangle 26" width="26.874" height="1.709" transform="translate(235.458 356.623)" fill="#c3e2fc"/>
                <rect id="Rectangle_27" data-name="Rectangle 27" width="26.874" height="1.709" transform="translate(235.458 361.243)" fill="#c3e2fc"/>
                <rect id="Rectangle_28" data-name="Rectangle 28" width="26.874" height="1.709" transform="translate(235.458 365.862)" fill="#c3e2fc"/>
              </g>
              <g id="Group_33" data-name="Group 33">
                <rect id="Rectangle_29" data-name="Rectangle 29" width="26.874" height="1.763" transform="translate(235.458 370.333)" fill="#c3e2fc"/>
                <rect id="Rectangle_30" data-name="Rectangle 30" width="26.874" height="1.763" transform="translate(235.458 375.099)" fill="#c3e2fc"/>
              </g>
              <g id="Group_34" data-name="Group 34">
                <rect id="Rectangle_31" data-name="Rectangle 31" width="25.502" height="1.763" transform="translate(267.228 289.483)" fill="#c3e2fc"/>
                <path id="Path_2687" data-name="Path 2687" d="M0,0H52.362V25.715H0Z" transform="translate(240.368 260.614)" fill="#acc9f9"/>
                <rect id="Rectangle_33" data-name="Rectangle 33" width="111.886" height="25.715" transform="translate(180.845 315.316)" fill="#9999ef"/>
                <rect id="Rectangle_34" data-name="Rectangle 34" width="25.502" height="1.763" transform="translate(267.228 294.249)" fill="#c3e2fc"/>
                <rect id="Rectangle_35" data-name="Rectangle 35" width="21.849" height="20.848" transform="translate(240.778 289.462)" fill="#acc9f9"/>
                <rect id="Rectangle_36" data-name="Rectangle 36" width="25.502" height="1.763" transform="translate(267.228 299.015)" fill="#c3e2fc"/>
                <rect id="Rectangle_37" data-name="Rectangle 37" width="25.502" height="1.763" transform="translate(267.228 303.781)" fill="#c3e2fc"/>
                <rect id="Rectangle_38" data-name="Rectangle 38" width="25.502" height="1.763" transform="translate(267.228 308.547)" fill="#c3e2fc"/>
              </g>
              <g id="Group_35" data-name="Group 35">
                <rect id="Rectangle_39" data-name="Rectangle 39" width="30.637" height="25.355" transform="translate(180.845 260.888)" fill="#9999ef"/>
              </g>
              <path id="Path_44" data-name="Path 44" d="M180.845,346.343l48.164.359v30.282l-48.164-.359Z" fill="#acc9f9"/>
              <g id="Group_37" data-name="Group 37">
                <rect id="Rectangle_40" data-name="Rectangle 40" width="111.886" height="43.513" transform="translate(180.845 207.867)" fill="#9999ef"/>
              </g>
            </g>
            <path id="Path_49" data-name="Path 49" d="M299.442,184.688V190.2l-22.263.182H173.636a2.4,2.4,0,0,1-2.39-2.4v-.9a2.4,2.4,0,0,1,2.39-2.4Z" fill="#9999ef"/>
            <text id="Alerts_Log" data-name="Alerts Log" transform="translate(237 236)" fill="#fff" font-size="19" font-family="SourceSansPro-SemiBold, Source Sans Pro" font-weight="600"><tspan x="-49.457" y="0">ALERTS LOG</tspan></text>
          </g>
          <g id="Group_41" data-name="Group 41">
            <path id="Path_50" data-name="Path 50" d="M174.2,337.8c-6.882-3.788-6.377,2.083-6.377,2.083.535,5.842,7.369,7.823,12.066,8.495l1.048-6.847C179.311,340.619,177.081,339.382,174.2,337.8Z" fill="#91a6f4"/>
            <path id="Path_51" data-name="Path 51" d="M199.425,341.222,184.4,344.079a12.41,12.41,0,0,1-3.6-1.478l-.8,4.935c1.944.713,5.163,1.707,5.351,1.436l14.521-6.124a5.526,5.526,0,0,0,3.9-1.578Z" fill="#ffa683"/>
            <path id="Path_52" data-name="Path 52" d="M166.69,338.7,179.6,314.911a2.509,2.509,0,0,1,1.169-1.038,5.247,5.247,0,0,1,5.073,1.166.392.392,0,0,1-.19.65l-3.6.68a1.666,1.666,0,0,0-1.276,1.125l-7.693,23.86Z" fill="#ffa683"/>
            <path id="Path_53" data-name="Path 53" d="M173.088,341.354l3.352-10.4-5.133-2.808-6.216,9.921Z" fill="#89a5f3"/>
            <g id="Group_40" data-name="Group 40">
              <path id="Path_54" data-name="Path 54" d="M163.437,362.249l1.064,18.417-9.07,25.38,3.62.021L175.7,380.918l-1.263-17.93Z" fill="#4460ea"/>
              <path id="Path_55" data-name="Path 55" d="M164.543,362.546s.7,2.525,4.167,8.46a95.694,95.694,0,0,0,8.081,11.427l1.227,23.591h3.74l3.871-24.013a3.142,3.142,0,0,0-.205-1.868l-8.506-19.365Z" fill="#4460ea"/>
              <path id="Path_56" data-name="Path 56" d="M170.024,336.53a4.077,4.077,0,0,0-.548.425A2,2,0,0,1,170.024,336.53Z" fill="url(#linear-gradient)"/>
              <path id="Path_57" data-name="Path 57" d="M168.773,335.791a5.588,5.588,0,0,1,5.268,3.007c1.432,2.631,3.793,7.439,3.87,10.663l.348,14.5a17.458,17.458,0,0,1-15.977-1.155s2.977-8.485,1.636-16.94C162.889,339.371,165.441,336.064,168.773,335.791Z" fill="#91a6f4"/>
              <path id="Path_58" data-name="Path 58" d="M175.2,364.95a128.075,128.075,0,0,0-1.123-13.743,3.847,3.847,0,0,0-1.65-2.666c-2.378-1.667-3.6-4.793-4.169-6.8,1.378,3.7,5.686,5.434,9.491,6.241a8.731,8.731,0,0,1,.168,1.477l.342,14.5A14.907,14.907,0,0,1,175.2,364.95Z" fill="#91a6f4"/>
              <path id="Path_59" data-name="Path 59" d="M176.954,329.367l-.518,1.591-4.27-2.337,3.182-5.868C175.782,324.694,176.535,327.708,176.954,329.367Z" fill="#ef8160"/>
            </g>
            <path id="Path_60" data-name="Path 60" d="M173.793,330.516c-.288-1.842-.646-3.566-2.275-3.311s-3.829,2.478-3.54,4.319a3.348,3.348,0,0,0,.763,1.654h-1.66v3.453h4.434v-2.316c.027,0,.054,0,.081,0C173.224,334.056,174.081,332.357,173.793,330.516Z" fill="#ffa683"/>
            <path id="Path_61" data-name="Path 61" d="M169.568,330.791s-.738-.889-1.219-.3-.721,1.468.667,1.975c0,0-.427,2.376-2.509,2.082a3.8,3.8,0,0,1-3.042-5.125c.88-2.8,1.654-4.911,4.8-4.777s5.418-.134,5.205-.935c0,0,1.415,3.73.12,4.2a9.3,9.3,0,0,1-2.763.47S170.493,330.693,169.568,330.791Z" fill="#084184"/>
            <path id="Path_62" data-name="Path 62" d="M171.515,336.631v-2.279l-.036-.035a5.255,5.255,0,0,1-1.81-.173,5.055,5.055,0,0,0,1.039.886c.167.075.189.8.161,1.6Z" fill="#ef8160"/>
            <path id="Path_63" data-name="Path 63" d="M178.151,406.019v2.724h7.431a.426.426,0,0,0,.236-.781,11.77,11.77,0,0,0-4.446-1.943Z" fill="#1f3a71"/>
            <path id="Path_64" data-name="Path 64" d="M155.441,406.019v2.724h7.432a.426.426,0,0,0,.236-.781,11.77,11.77,0,0,0-4.446-1.943Z" fill="#1f3a71"/>
            <path id="Path_65" data-name="Path 65" d="M175.2,365.646l8.793,16.979-3.221,24.1h.99l3.871-24.013a3.143,3.143,0,0,0-.205-1.868l-7.585-17.267Z" fill="#4460ea"/>
            <path id="Path_66" data-name="Path 66" d="M164.276,363.841c2.177-3.829,2.446-13.5.835-17.572a10.226,10.226,0,0,1,1.56-9.818c-2.2,1.278-3.55,4.386-2.753,9.411,1.341,8.455-1.636,16.94-1.636,16.94A17.8,17.8,0,0,0,164.276,363.841Z" fill="#91a6f4"/>
          </g>
          <g id="Group_43" data-name="Group 43">
            <g id="Group_42" data-name="Group 42">
              <path id="Rectangle_41" data-name="Rectangle 41" d="M0,0H73.512a0,0,0,0,1,0,0V48.411A19.633,19.633,0,0,1,53.879,68.044H19.633A19.633,19.633,0,0,1,0,48.411V0A0,0,0,0,1,0,0Z" transform="translate(329.323 329.7)" fill="#d4ecff"/>
              <path id="Path_67" data-name="Path 67" d="M333.778,378.111V329.7h-4.455v48.411a19.633,19.633,0,0,0,19.633,19.633h4.456A19.633,19.633,0,0,1,333.778,378.111Z" fill="#fff"/>
              <path id="Path_68" data-name="Path 68" d="M381.267,329.7v48.411a19.633,19.633,0,0,1-19.633,19.633H383.2a19.633,19.633,0,0,0,19.633-19.633V329.7Z" fill="#b3d9ff"/>
              <path id="Path_69" data-name="Path 69" d="M402.808,329.675c0-3.271-16.451-5.923-36.743-5.923s-36.742,2.652-36.742,5.923,16.45,5.923,36.742,5.923S402.808,332.947,402.808,329.675Z" fill="#b3d9ff"/>
              <path id="Path_70" data-name="Path 70" d="M366.065,334.225c-22.358,0-33.922-2.934-35.3-4.55,1.38-1.616,12.944-4.55,35.3-4.55s33.923,2.934,35.3,4.55C399.988,331.291,388.423,334.225,366.065,334.225Z" fill="#acc9f9"/>
              <path id="Path_71" data-name="Path 71" d="M360.732,326.6c13.774,0,25.312,2.692,28.377,6.313,7.425-.988,11.477-2.326,12.259-3.241-1.38-1.616-12.945-4.55-35.3-4.55s-33.922,2.934-35.3,4.55c.392.459,1.607,1.024,3.654,1.6C339.125,328.51,349.139,326.6,360.732,326.6Z" fill="#9999ef"/>
            </g>
            <path id="Path_72" data-name="Path 72" d="M395.106,344.247h0a3.4,3.4,0,0,0,2.858,3.229,15.024,15.024,0,0,1,7.957,4.248,17.052,17.052,0,0,1-.113,22.669,15.029,15.029,0,0,1-8,4.168,3.4,3.4,0,0,0-2.891,3.2h0c-.01,2.11,2.208,3.691,4.571,3.265,11.4-2.058,17.947-11.068,18-21.91s-6.4-19.917-17.782-22.087C397.35,340.579,395.116,342.137,395.106,344.247Z" fill="#d4ecff"/>
            <path id="Path_73" data-name="Path 73" d="M395.3,382.24h0a3.45,3.45,0,0,1,2.891-3.274,14.928,14.928,0,0,0,8-4.266,17.75,17.75,0,0,0,.115-23.192,14.92,14.92,0,0,0-7.956-4.345,3.452,3.452,0,0,1-2.858-3.3,3.089,3.089,0,0,1,.648-1.846,3.062,3.062,0,0,0-1.034,2.233,3.4,3.4,0,0,0,2.858,3.229,15.024,15.024,0,0,1,7.957,4.248,17.052,17.052,0,0,1-.113,22.669,15.029,15.029,0,0,1-8,4.168,3.4,3.4,0,0,0-2.891,3.2h0a3.041,3.041,0,0,0,.848,2.1A3.077,3.077,0,0,1,395.3,382.24Z" fill="#fff"/>
            <path id="Path_74" data-name="Path 74" d="M399.709,341.029a4.107,4.107,0,0,0-3.751,1.141,4.473,4.473,0,0,1,2.009-.09c11.382,2.078,17.839,10.76,17.787,21.13s-6.594,18.987-18,20.952a4.493,4.493,0,0,1-1.714-.033,4.156,4.156,0,0,0,3.446.9c11.4-2.058,17.947-11.068,18-21.91S411.09,343.2,399.709,341.029Z" fill="#b3d9ff"/>
          </g>
          <g id="Group_45" data-name="Group 45">
            <path id="Path_75" data-name="Path 75" d="M113.464,190.407c6.005,0,6.323-8.939.331-9.321l-.171-.01c0-.037,0-.074,0-.112A11.57,11.57,0,0,0,96.5,170.816a12.014,12.014,0,0,0-22.6,5.678c0,.356.019.708.049,1.056A13.984,13.984,0,0,0,58.463,183.2a4.657,4.657,0,0,0,3.912,7.21Z" fill="#d9e8ff"/>
            <path id="Path_76" data-name="Path 76" d="M188.15,131.747c5.915,0,6.229-8.807.325-9.183l-.168-.01c0-.037,0-.073,0-.11a11.4,11.4,0,0,0-16.873-10,11.836,11.836,0,0,0-22.267,5.594c0,.351.019.7.049,1.04a13.785,13.785,0,0,0-15.258,5.563,4.589,4.589,0,0,0,3.854,7.1Z" fill="#d9e8ff"/>
            <path id="Path_77" data-name="Path 77" d="M402.085,191.439c-5.324,0-5.606-7.926-.293-8.264.05,0,.1-.007.151-.009,0-.033,0-.066,0-.1a10.26,10.26,0,0,1,15.184-9,10.652,10.652,0,0,1,20.039,5.034c0,.316-.017.628-.044.936a12.405,12.405,0,0,1,13.731,5.007,4.129,4.129,0,0,1-3.468,6.393Z" fill="#cdcde7"/>
            <path id="Path_78" data-name="Path 78" d="M348.67,125.559c-6.32,0-6.655-9.41-.347-9.812l.179-.01c0-.039,0-.078,0-.118a12.18,12.18,0,0,1,18.028-10.682,12.646,12.646,0,0,1,23.79,5.976c0,.375-.02.745-.052,1.112a14.726,14.726,0,0,1,16.3,5.944,4.9,4.9,0,0,1-4.118,7.59Z" fill="#cdcde7"/>
            <g id="Group_44" data-name="Group 44">
              <circle id="Ellipse_4" data-name="Ellipse 4" cx="30.812" cy="30.812" r="30.812" transform="translate(380.613 85.331)" fill="#acc9f9"/>
              <path id="Path_79" data-name="Path 79" d="M414.236,85.465a26.244,26.244,0,1,1-31.9,40.85,30.811,30.811,0,1,0,31.9-40.85Z" fill="#9999ef" opacity="0.28"/>
            </g>
          </g>
          <g id="Group_47" data-name="Group 47">
            <path id="Path_80" data-name="Path 80" d="M339.526,378.057l-2.428,3.474-11.157-5.43h0s-.21-1.961-.761-2.018c-.28-.029-.43.311-.509.652-.549-.535-1.141-1.024-1.471-1.022-.74,0,1.121,2.989,1.413,3.541.553,1.045,7.676,5.987,15.648,9.5l3.175-5.964Z" fill="#ffa683"/>
            <path id="Path_81" data-name="Path 81" d="M325.238,374.428l-1.607-6.738a.461.461,0,0,0-.484-.347l-.74.108a.345.345,0,0,0-.3.432l1.607,6.737a.4.4,0,0,0,.436.352l.739-.108A.4.4,0,0,0,325.238,374.428Z" fill="#084184"/>
            <path id="Path_82" data-name="Path 82" d="M324.908,381.65c-2.43.212-24.249,21.028-24.249,21.028l5-.069,19.018-11.2s12.943,10.336,23.966,10.514c4.787.077,4.948-5.8,4.948-5.8S330.833,381.133,324.908,381.65Z" fill="#4460ea"/>
            <path id="Path_83" data-name="Path 83" d="M353.512,396.973s-1.277,6.928-8.3,7.924l-55.167-.274.232-4.441,47.776-5.451Z" fill="#4460ea"/>
            <path id="Path_84" data-name="Path 84" d="M345.076,371.133a6.389,6.389,0,0,0-3.933,2.21c-.794,1.049-3.286,5.888-3.286,5.888l5.479,3.3Z" fill="#91a6f4"/>
            <g id="Group_46" data-name="Group 46">
              <path id="Path_85" data-name="Path 85" d="M343.927,363.745s-1.9-.284-2.378-1.68c-.6-1.752.36-4.059,1.473-4.026,0,0,1.9.207,4.309.72.912.194,1.733-.478,2.444-.4,1.823.192,6.283,5.019.632,10.168l-4.171-2.973Z" fill="#084184"/>
              <path id="Path_86" data-name="Path 86" d="M351.193,364.1a.728.728,0,0,0-.971-.091l-.02.022a6.273,6.273,0,0,1-2.619-1.817c-.681.9-3.678,1.526-3.678,1.526v2a3.268,3.268,0,0,0,2.918,3.309l-.032,2.59,3.769-1.165V366.54A2.029,2.029,0,0,0,351.193,364.1Z" fill="#ffa683"/>
              <path id="Path_87" data-name="Path 87" d="M347.867,369.539a19.636,19.636,0,0,0,1.576-2.023,7.069,7.069,0,0,1-2.621,1.564l-.031,2.563.981-.3A4.686,4.686,0,0,1,347.867,369.539Z" fill="#ef8160"/>
            </g>
            <path id="Path_88" data-name="Path 88" d="M369,405.513a224.024,224.024,0,0,1-8.04-22.111,26.173,26.173,0,0,1-4.25,2.544l9.751,19.245s.773,1.958,1.933,2.035,4.087.643,4.11.4C372.556,407.085,369,405.513,369,405.513Z" fill="#ffa683"/>
            <path id="Path_89" data-name="Path 89" d="M357.36,372.88c-1.578-1.3-5.361-2.146-6.7-2.412a2.79,2.79,0,0,0-.947-.024l-4.655.676c-4.3,2.518-2.934,5.738-4.466,11.37s-3.964,11.758-3.964,11.758c3.559,2.883,16.077,4.813,16.077,4.813,2-2.092,2.087-9.84,2.221-14.694l1.7,1.862s5.693-2.9,5.632-3.109C361.447,380.417,357.36,372.88,357.36,372.88Z" fill="#91a6f4"/>
            <path id="Path_90" data-name="Path 90" d="M290.022,404.621l-2.209-.207a1,1,0,0,1-.906-1.094l.728-7.752a.5.5,0,0,1,.943-.2,13.926,13.926,0,0,1,1.8,5.455Z" fill="#1f3a71"/>
            <path id="Path_91" data-name="Path 91" d="M348.391,398.265c2.468.511,4.31.8,4.31.8,2-2.092,2.087-9.84,2.221-14.694l-1.745-3.474S352.917,392.611,348.391,398.265Z" fill="#91a6f4"/>
            <path id="Path_92" data-name="Path 92" d="M352.943,398.76a9.682,9.682,0,0,1-7.736,6.142l-55.165-.28.019-.27c9.385-.261,45.351-1.277,50.906-1.454,6.384-.205,7.428-4.632,7.428-4.632h.009c2.46.513,4.3.792,4.3.792A2.7,2.7,0,0,0,352.943,398.76Z" fill="#4460ea"/>
          </g>
          <g id="Group_52" data-name="Group 52">
            <path id="Path_93" data-name="Path 93" d="M166.316,163.27a5.363,5.363,0,0,0-2.273,1.957c-.644,1.232-.487,12.6-3.73,13.227s-9.537,1.308-9.537,1.308l.208,2.362,16.9-2.284Z" fill="#92a7f4"/>
            <path id="Path_94" data-name="Path 94" d="M163.912,180.352l9.706,9.145s-4.541,4.719-15.084,2.278l-11.1-1.414-15.6,18.567-3.087-1.252,13.546-23.121a3.352,3.352,0,0,1,2.493-1.616Z" fill="#4460ea"/>
            <path id="Path_95" data-name="Path 95" d="M169.63,161.376c1.654,1.161,12.088,9.384,5.4,27.921l-11.53-9.025s2.13-5.564,1.6-10.087c-.908-7.807,3.379-8.591,4.072-8.864A.474.474,0,0,1,169.63,161.376Z" fill="#92a7f4"/>
            <path id="Path_96" data-name="Path 96" d="M163.722,180.422l11.162,8.507s-2.212,3.808-13.005,4.6l-10.93,1.335-9.53,22.2-3.383-.157,6.28-26.065a3.351,3.351,0,0,1,1.9-2.281Z" fill="#4460ea"/>
            <path id="Path_97" data-name="Path 97" d="M154.3,168.8l-2.6-5.552a.408.408,0,0,0-.483-.213l-.621.226a.3.3,0,0,0-.186.429l2.6,5.552a.351.351,0,0,0,.442.226l.622-.226A.351.351,0,0,0,154.3,168.8Z" fill="#084184"/>
            <path id="Path_98" data-name="Path 98" d="M150.83,180.208s-3.694.514-3.358,2.359l3.512-.443Z" fill="#ffa683"/>
            <g id="Group_48" data-name="Group 48">
              <path id="Path_99" data-name="Path 99" d="M155.26,169.92s-.58-1.46-1.067-1.411c-.249.025-.317.347-.325.657a2.927,2.927,0,0,0-1.459-.621c-.641.137,1.51,2.389,1.863,2.815a4.652,4.652,0,0,0,.867.645l.881-1.68Z" fill="#92a7f4"/>
              <path id="Path_100" data-name="Path 100" d="M171.336,163.679a3.157,3.157,0,0,0-4.043,2.359l-1.429,6.781-9.778-3.018-1,2.453A52.525,52.525,0,0,0,170.1,178.4l3.293-10.763A3.157,3.157,0,0,0,171.336,163.679Z" fill="#92a7f4"/>
              <path id="Path_101" data-name="Path 101" d="M174.906,166.795s-3.047,14.394-3.7,14.844-7.188-5.06-7.188-5.06A42.567,42.567,0,0,0,170.1,178.4l3.063-10.045Z" fill="#92a7f4"/>
            </g>
            <path id="Path_102" data-name="Path 102" d="M141.37,216.913v2.7h-7.35a.422.422,0,0,1-.234-.773,11.65,11.65,0,0,1,4.4-1.922Z" fill="#1f3a71"/>
            <path id="Path_103" data-name="Path 103" d="M131.844,208.909l-1.225,2.5-6.6-2.676a.422.422,0,0,1,.065-.8,11.271,11.271,0,0,1,4.726-.234Z" fill="#1f3a71"/>
            <path id="Path_104" data-name="Path 104" d="M149.213,193.8,140.6,217.024l.817.038,9.53-22.2,10.93-1.335c10.793-.791,13.005-4.6,13.005-4.6l-2.164-1.649C167.265,191.387,149.213,193.8,149.213,193.8Z" fill="#4460ea"/>
            <path id="Path_105" data-name="Path 105" d="M175.059,167.965c1.109,4.569,1.928,9.608.973,13.516a14.291,14.291,0,0,1-3.312,5.8l2.314,2.017C178.594,179.424,177.3,172.478,175.059,167.965Z" fill="#92a7f4"/>
            <g id="Group_51" data-name="Group 51">
              <g id="Group_50" data-name="Group 50">
                <g id="Group_49" data-name="Group 49">
                  <path id="Path_106" data-name="Path 106" d="M161.055,154.89a4.068,4.068,0,0,1,5.474-1.492,3.938,3.938,0,0,1,1.744,5.289,4.4,4.4,0,0,1-.335.539l.826,2.492-3.338,2.129-.2-2.8a2.975,2.975,0,0,1-2.751-.215C160.524,159.826,160.068,156.806,161.055,154.89Z" fill="#ffa683"/>
                </g>
                <path id="Path_107" data-name="Path 107" d="M165.766,156.565s1.15-.509,1.336.526-.69,1.888.484,3.56,1.305,1.119.244,4.615,1.612,6.55,6.748,5.912,5.786-6.486,1.755-10.779-4.936-6.084-7.069-8.194-8.307-2.641-8.93,3.416a9.834,9.834,0,0,0,3.767.161l.011,1.524a.266.266,0,0,0,.43.209Z" fill="#3f3f3f"/>
              </g>
              <path id="Path_108" data-name="Path 108" d="M166.006,161.639c-.012-.385.846-2.026.644-1.774a17.256,17.256,0,0,1-1.425,1.181l.2,2.8.874-.557C166.148,162.529,166.011,161.807,166.006,161.639Z" fill="#ef8160"/>
            </g>
          </g>
        </g>
      </g>
    </g>
  </g>
</svg>
