<svg xmlns="http://www.w3.org/2000/svg" xmlns:xlink="http://www.w3.org/1999/xlink" width="15.75" height="18" viewBox="0 0 15.75 18">
  <defs>
    <linearGradient id="linear-gradient" x1="0.097" y1="0.045" x2="0.93" y2="1" gradientUnits="objectBoundingBox">
      <stop offset="0" stop-color="#7a0c8c"/>
      <stop offset="1" stop-color="#05d6fb"/>
    </linearGradient>
  </defs>
  <path id="delete" d="M9.422,14.625h.844a.422.422,0,0,0,.422-.422V6.609a.422.422,0,0,0-.422-.422H9.422A.422.422,0,0,0,9,6.609V14.2A.422.422,0,0,0,9.422,14.625ZM15.187,2.812h-2.9L11.095.819A1.687,1.687,0,0,0,9.647,0H6.1A1.688,1.688,0,0,0,4.656.819L3.46,2.812H.562A.562.562,0,0,0,0,3.375v.563A.562.562,0,0,0,.562,4.5h.562V16.312A1.687,1.687,0,0,0,2.812,18H12.937a1.687,1.687,0,0,0,1.687-1.688V4.5h.563a.563.563,0,0,0,.563-.563V3.375A.563.563,0,0,0,15.187,2.812ZM6.041,1.79a.211.211,0,0,1,.181-.1h3.3a.211.211,0,0,1,.181.1l.614,1.023H5.428Zm6.9,14.523H2.812V4.5H12.937ZM5.484,14.625h.844A.422.422,0,0,0,6.75,14.2V6.609a.422.422,0,0,0-.422-.422H5.484a.422.422,0,0,0-.422.422V14.2A.422.422,0,0,0,5.484,14.625Z" fill="url(#linear-gradient)"/>
</svg>
